<svg width="30" height="30" viewBox="0 0 30 30" fill="none" xmlns="http://www.w3.org/2000/svg">
<path opacity="0.1" fill-rule="evenodd" clip-rule="evenodd" d="M0 15C0 6.71573 6.71573 0 15 0C23.2843 0 30 6.71573 30 15C30 23.2843 23.2843 30 15 30C6.71573 30 0 23.2843 0 15Z" fill="white"/>
<path fill-rule="evenodd" clip-rule="evenodd" d="M14.5507 12.1922L14.5822 12.7112L14.0576 12.6477C12.148 12.404 10.4798 11.5778 9.06331 10.1902L8.37082 9.50169L8.19245 10.0101C7.81474 11.1435 8.05606 12.3405 8.84297 13.1455C9.26266 13.5904 9.16823 13.654 8.44427 13.3891C8.19245 13.3044 7.97212 13.2408 7.95113 13.2726C7.87769 13.3468 8.1295 14.3107 8.32885 14.692C8.60165 15.2217 9.15774 15.7407 9.76628 16.0479L10.2804 16.2915L9.67185 16.3021C9.08429 16.3021 9.06331 16.3127 9.12626 16.5351C9.3361 17.2236 10.165 17.9545 11.0883 18.2723L11.7388 18.4947L11.1722 18.8337C10.3329 19.321 9.34659 19.5964 8.36033 19.6175C7.88818 19.6281 7.49997 19.6705 7.49997 19.7023C7.49997 19.8082 8.78002 20.4014 9.52496 20.6344C11.7598 21.3229 14.4143 21.0264 16.4078 19.8506C17.8243 19.0138 19.2407 17.3507 19.9017 15.7407C20.2585 14.8827 20.6152 13.315 20.6152 12.5629C20.6152 12.0757 20.6467 12.0121 21.2342 11.4295C21.5805 11.0906 21.9057 10.7198 21.9687 10.6139C22.0736 10.4126 22.0631 10.4126 21.528 10.5927C20.6362 10.9105 20.5103 10.8681 20.951 10.3915C21.2762 10.0525 21.6644 9.43813 21.6644 9.25806C21.6644 9.22628 21.507 9.27924 21.3287 9.37458C21.1398 9.4805 20.7201 9.63939 20.4054 9.73472L19.8388 9.91479L19.3247 9.56524C19.0414 9.37458 18.6427 9.16273 18.4328 9.09917C17.8977 8.95087 17.0793 8.97206 16.5967 9.14154C15.2852 9.6182 14.4563 10.8469 14.5507 12.1922Z" fill="white"/>
</svg>
