<svg width="30" height="30" viewBox="0 0 30 30" fill="none" xmlns="http://www.w3.org/2000/svg">
<path opacity="0.1" fill-rule="evenodd" clip-rule="evenodd" d="M0 15C0 6.71573 6.71573 0 15 0C23.2843 0 30 6.71573 30 15C30 23.2843 23.2843 30 15 30C6.71573 30 0 23.2843 0 15Z" fill="white"/>
<path fill-rule="evenodd" clip-rule="evenodd" d="M21.251 9.84333C21.9395 10.0322 22.4817 10.5889 22.6657 11.2958C23 12.5769 23 15.25 23 15.25C23 15.25 23 17.923 22.6657 19.2042C22.4817 19.9111 21.9395 20.4678 21.251 20.6568C20.0034 21 15 21 15 21C15 21 9.99667 21 8.74894 20.6568C8.06049 20.4678 7.5183 19.9111 7.3343 19.2042C7.00003 17.923 7.00003 15.25 7.00003 15.25C7.00003 15.25 7.00003 12.5769 7.3343 11.2958C7.5183 10.5889 8.06049 10.0322 8.74894 9.84333C9.99667 9.5 15 9.5 15 9.5C15 9.5 20.0034 9.5 21.251 9.84333ZM13.5 12.9999V17.9999L17.5 15.5L13.5 12.9999Z" fill="white"/>
</svg>
