<svg width="165" height="44" viewBox="0 0 165 44" fill="none" xmlns="http://www.w3.org/2000/svg">
<g filter="url(#filter0_d_22_365)">
<g clip-path="url(#clip0_22_365)">
<path d="M145.794 11.2934L145.502 11.3855C144.369 9.04204 142.749 7.17651 140.644 5.78893C138.571 4.40133 135.964 3.70752 132.822 3.70752C131.073 3.70752 129.405 4.06211 127.818 4.77129C126.231 5.44972 124.838 6.42104 123.64 7.68525C122.474 8.91865 121.534 10.4142 120.822 12.1718C120.109 13.9294 119.753 15.872 119.753 17.9997C119.753 20.1273 120.109 22.0699 120.822 23.8275C121.534 25.5851 122.474 27.096 123.64 28.3603C124.838 29.5937 126.231 30.5496 127.818 31.228C129.405 31.9063 131.073 32.2455 132.822 32.2455C135.931 32.2455 138.458 31.783 140.401 30.8579C142.377 29.9021 144.045 28.4528 145.405 26.5102L145.697 26.6024L145.6 29.5626C144.855 30.3026 143.997 30.9656 143.025 31.5514C142.053 32.1065 141.001 32.5844 139.867 32.9853C138.766 33.3553 137.616 33.6328 136.418 33.8178C135.219 34.0339 134.021 34.1419 132.822 34.1419C130.328 34.1419 127.948 33.7564 125.681 32.9855C123.413 32.2146 121.421 31.1354 119.705 29.7478C117.988 28.3294 116.628 26.6335 115.624 24.66C114.62 22.6558 114.117 20.4356 114.117 17.9996C114.117 15.5636 114.62 13.3589 115.624 11.3855C116.628 9.38116 117.988 7.6698 119.705 6.25142C121.421 4.83298 123.413 3.75374 125.681 3.01369C127.948 2.24279 130.328 1.85734 132.822 1.85734C134.021 1.85734 135.219 1.94984 136.418 2.13486C137.616 2.31987 138.766 2.61281 139.867 3.01369C141.001 3.38372 142.053 3.86167 143.025 4.44757C143.997 5.0026 144.855 5.65013 145.6 6.39017L145.794 11.2934ZM38.7337 20.1277C38.3776 20.2817 38.0375 20.4822 37.7134 20.7293C37.3893 20.9758 37.2273 21.315 37.2273 21.7469V27.4359C35.6726 29.5636 33.6807 31.2133 31.2515 32.385C28.8223 33.5568 26.1339 34.1427 23.1865 34.1427C20.6925 34.1427 18.3119 33.7572 16.0447 32.9863C13.7774 32.2154 11.7855 31.1362 10.0688 29.7486C8.3522 28.3302 6.99183 26.6343 5.98774 24.6608C4.98371 22.6566 4.48169 20.4364 4.48169 18.0004C4.48169 15.5644 4.98371 13.3597 5.98774 11.3863C6.99183 9.38192 8.3522 7.67056 10.0688 6.25218C11.7855 4.83374 13.7774 3.75451 16.0447 3.01449C18.3119 2.24356 20.6925 1.8581 23.1865 1.8581C24.3849 1.8581 25.5833 1.9506 26.7818 2.13561C27.9801 2.32062 29.1299 2.61357 30.2312 3.01445C31.3648 3.38447 32.4175 3.86243 33.3891 4.44832C34.3608 5.00335 35.2192 5.65089 35.9642 6.39093L36.1588 11.2937L35.8673 11.3859C34.7337 9.04238 33.1142 7.17683 31.0089 5.78925C28.936 4.40165 26.3286 3.70784 23.1868 3.70784C21.4378 3.70784 19.7698 4.06245 18.1828 4.77165C16.5957 5.45005 15.2029 6.42136 14.0045 7.68557C12.8384 8.919 11.8992 10.4145 11.1867 12.1721C10.474 13.9297 10.1177 15.8724 10.1177 18C10.1177 20.0968 10.4578 22.024 11.138 23.7816C11.8506 25.5392 12.7899 27.0501 13.9559 28.3144C15.1543 29.5478 16.547 30.5191 18.1341 31.2283C19.7212 31.9067 21.4055 32.2459 23.1868 32.2459C26.5554 32.2459 29.438 31.6292 31.8348 30.3958V21.7465C31.8348 21.315 31.6568 20.9758 31.3007 20.7289C30.9766 20.4824 30.6527 20.2819 30.329 20.1273L30.3734 19.8963C30.5351 19.9245 30.8267 19.9553 31.2479 19.9885C31.6692 20.0167 32.1064 20.0475 32.5597 20.0807H36.7381C37.1268 20.0525 37.4993 20.0218 37.8556 19.9885C38.2117 19.9603 38.4869 19.9296 38.6813 19.8963L38.7337 20.1277ZM73.9237 2.82908C73.5996 2.98307 73.2757 3.18359 72.952 3.43065C72.6279 3.67714 72.4499 4.13967 72.4179 4.81822C72.3883 5.55827 72.356 6.49875 72.321 7.63967C72.321 8.74976 72.3062 10.014 72.2766 11.4323C72.2766 12.8508 72.2618 14.3926 72.2321 16.0577V21.2381C72.2025 23.2423 71.9433 24.9537 71.4545 26.3721C70.9687 27.7905 70.3209 28.9776 69.5112 29.9335C68.7339 30.8895 67.8593 31.6449 66.8876 32.2C65.9483 32.755 65.009 33.1713 64.0697 33.4488C63.1628 33.7573 62.3045 33.9423 61.4949 34.0038C60.6851 34.0963 60.0535 34.1426 59.6 34.1426C57.7539 34.1426 55.9724 33.9113 54.2557 33.4488C52.5391 33.0173 51.033 32.3081 49.7375 31.3211C48.4419 30.3344 47.4055 29.0547 46.6281 27.4822C45.8508 25.9096 45.4621 23.9978 45.4621 21.7468V16.5203V11.7099C45.4621 10.2298 45.4473 8.90384 45.4177 7.73214C45.4177 6.52954 45.4028 5.55823 45.3732 4.81818C45.3436 4.13979 45.1656 3.67726 44.8391 3.43061C44.515 3.18411 44.1911 2.98359 43.8674 2.82904L43.9119 2.59806C44.0736 2.62626 44.3329 2.65699 44.6895 2.69025C45.0782 2.71845 45.4669 2.74918 45.8555 2.78243C46.2768 2.78243 46.6817 2.79653 47.0702 2.82473H48.8192C49.2079 2.79653 49.6127 2.78243 50.0337 2.78243C50.455 2.75423 50.8437 2.7235 51.1998 2.69025C51.5884 2.66204 51.8636 2.63132 52.0254 2.59806L52.0698 2.82904C51.7137 2.98303 51.3736 3.18355 51.0496 3.43061C50.7581 3.6771 50.596 4.13963 50.5634 4.81818C50.5338 5.55823 50.5015 6.52954 50.4666 7.73214V21.7468C50.4666 25.1078 51.2925 27.59 52.9443 29.1935C54.5962 30.7969 57.0416 31.5986 60.2806 31.5986C61.2198 31.5986 62.2887 31.4906 63.4871 31.2746C64.6856 31.0281 65.803 30.5347 66.8394 29.7945C67.9082 29.0544 68.799 28.0061 69.5115 26.6493C70.2565 25.2925 70.629 23.4887 70.629 21.2377C70.629 18.8017 70.6142 16.7204 70.5845 14.9936C70.5845 13.236 70.5697 11.7405 70.5401 10.5071C70.5401 9.24282 70.5253 8.16358 70.4957 7.26933C70.466 6.37514 70.4337 5.55801 70.3988 4.81795C70.3691 4.13955 70.1911 3.67702 69.8646 3.43037C69.5405 3.18387 69.2167 2.98334 68.893 2.82876L68.9374 2.59782C69.2935 2.65928 69.6984 2.72104 70.152 2.78311C70.6052 2.81131 71.0263 2.82541 71.4152 2.82541C71.7713 2.82541 72.1761 2.81131 72.6298 2.78311C73.1156 2.72165 73.5367 2.65989 73.893 2.59782L73.9237 2.82908ZM109.178 11.2934L108.886 11.3855C107.753 9.04204 106.133 7.17651 104.028 5.78893C101.955 4.40133 99.3476 3.70752 96.2059 3.70752C94.4569 3.70752 92.7888 4.06211 91.2017 4.77129C89.6146 5.44972 88.2219 6.42104 87.0235 7.68525C85.8575 8.91865 84.9182 10.4142 84.2056 12.1718C83.4931 13.9294 83.1368 15.8721 83.1368 17.9997C83.1368 20.1273 83.4931 22.0699 84.2056 23.8275C84.9183 25.5851 85.8576 27.096 87.0235 28.3603C88.2219 29.5937 89.6146 30.5496 91.2017 31.228C92.7888 31.9063 94.4569 32.2455 96.2059 32.2455C99.3153 32.2455 101.842 31.783 103.785 30.8579C105.761 29.9021 107.429 28.4528 108.789 26.5102L109.081 26.6024L108.984 29.5626C108.239 30.3026 107.38 30.9656 106.409 31.5514C105.437 32.1064 104.384 32.5844 103.251 32.9853C102.15 33.3553 101 33.6328 99.8013 33.8178C98.6029 34.0338 97.4045 34.1419 96.2062 34.1419C93.7121 34.1419 91.3315 33.7564 89.0643 32.9855C86.797 32.2146 84.8051 31.1354 83.0885 29.7478C81.3718 28.3294 80.0114 26.6335 79.0074 24.66C78.0033 22.6557 77.5013 20.4356 77.5013 17.9996C77.5013 15.5636 78.0033 13.3589 79.0074 11.3855C80.0114 9.38112 81.3718 7.66976 83.0885 6.25138C84.8051 4.83294 86.797 3.7537 89.0643 3.01365C91.3315 2.24275 93.7122 1.8573 96.2062 1.8573C97.4045 1.8573 98.6029 1.94981 99.8013 2.13482C101 2.31983 102.15 2.61277 103.251 3.01365C104.384 3.38368 105.437 3.86163 106.409 4.44753C107.38 5.00256 108.239 5.65009 108.984 6.39013L109.178 11.2934ZM160.437 33.356C160.275 33.3278 160 33.297 159.612 33.2638C159.256 33.2638 158.867 33.2497 158.446 33.2215C158.024 33.2215 157.619 33.2074 157.231 33.1792H154.316C153.928 33.2074 153.539 33.2381 153.15 33.2714C152.794 33.2996 152.519 33.3303 152.325 33.3635L152.28 33.1782C152.604 33.0242 152.928 32.8237 153.252 32.5766C153.576 32.3302 153.754 31.8676 153.786 31.1891C153.816 30.449 153.83 29.6782 153.83 28.8764C153.86 28.0747 153.875 27.165 153.875 26.1475V22.6785V18.007V13.3355V9.82025C153.875 8.80269 153.86 7.90846 153.83 7.13756C153.83 6.33585 153.816 5.56497 153.786 4.82493C153.756 4.14653 153.578 3.68401 153.252 3.43735C152.928 3.15984 152.604 2.94407 152.28 2.79005L152.325 2.6048C152.519 2.66626 152.794 2.71251 153.15 2.74356C153.539 2.74356 153.928 2.75766 154.316 2.78586C154.737 2.81406 155.142 2.82817 155.531 2.82817H157.231C157.62 2.79996 158.025 2.78586 158.446 2.78586C158.867 2.75766 159.256 2.72693 159.612 2.69368C160 2.66548 160.275 2.63475 160.437 2.60149L160.482 2.78682C160.126 2.94081 159.786 3.15656 159.461 3.43408C159.17 3.68057 159.008 4.1431 158.975 4.82166C158.946 5.5617 158.913 6.33257 158.878 7.13429V28.8732C158.908 29.6749 158.94 30.4458 158.975 31.1858C159.005 31.8642 159.167 32.3267 159.461 32.5734C159.786 32.8199 160.126 33.0204 160.482 33.1749L160.437 33.356Z" fill="white"/>
</g>
<rect x="4.98169" y="0.5" width="155" height="35" stroke="black" shape-rendering="crispEdges"/>
</g>
<defs>
<filter id="filter0_d_22_365" x="0.481689" y="0" width="164" height="44" filterUnits="userSpaceOnUse" color-interpolation-filters="sRGB">
<feFlood flood-opacity="0" result="BackgroundImageFix"/>
<feColorMatrix in="SourceAlpha" type="matrix" values="0 0 0 0 0 0 0 0 0 0 0 0 0 0 0 0 0 0 127 0" result="hardAlpha"/>
<feOffset dy="4"/>
<feGaussianBlur stdDeviation="2"/>
<feComposite in2="hardAlpha" operator="out"/>
<feColorMatrix type="matrix" values="0 0 0 0 0 0 0 0 0 0 0 0 0 0 0 0 0 0 0.25 0"/>
<feBlend mode="normal" in2="BackgroundImageFix" result="effect1_dropShadow_22_365"/>
<feBlend mode="normal" in="SourceGraphic" in2="effect1_dropShadow_22_365" result="shape"/>
</filter>
<clipPath id="clip0_22_365">
<rect x="4.48169" width="156" height="36" fill="white"/>
</clipPath>
</defs>
</svg>
